<svg width="20" height="24" viewBox="0 0 20 24" fill="none" xmlns="http://www.w3.org/2000/svg">
<g id="Group">
<path id="Vector" d="M19.1488 8.18824C17.5495 9.17647 16.5618 10.8706 16.5618 12.7529C16.5618 14.8706 17.8318 16.8 19.7602 17.6C19.3839 18.8235 18.8195 19.9529 18.114 20.9882C17.0792 22.4471 15.9973 23.9529 14.3981 23.9529C12.7989 23.9529 12.3285 23.0118 10.4471 23.0118C8.61267 23.0118 7.95416 24 6.44901 24C4.94385 24 3.90905 22.6353 2.73315 20.9412C1.18096 18.5882 0.287271 15.8588 0.240234 12.9882C0.240234 8.32941 3.25055 5.83529 6.26086 5.83529C7.86009 5.83529 9.1771 6.87059 10.1649 6.87059C11.1056 6.87059 12.6107 5.78824 14.3981 5.78824C16.2796 5.74118 18.0669 6.63529 19.1488 8.18824ZM13.5515 3.81176C14.3511 2.87059 14.7744 1.69412 14.8214 0.470588C14.8214 0.329412 14.8214 0.141176 14.7744 0C13.4104 0.141176 12.1404 0.8 11.2467 1.83529C10.4471 2.72941 9.97672 3.85882 9.92968 5.08235C9.92968 5.22353 9.92968 5.36471 9.97672 5.50588C10.0708 5.50588 10.2119 5.55294 10.306 5.55294C11.5759 5.45882 12.7518 4.8 13.5515 3.81176Z" fill="black"/>
</g>
</svg>
