<svg width="200" height="64" viewBox="0 0 200 64" fill="none" xmlns="http://www.w3.org/2000/svg">
<g id="Clip path group">
<mask id="mask0_478_5876" style="mask-type:luminance" maskUnits="userSpaceOnUse" x="0" y="0" width="200" height="64">
<g id="clip0">
<path id="Vector" d="M200 0H0V64H200V0Z" fill="white"/>
</g>
</mask>
<g mask="url(#mask0_478_5876)">
<g id="Group">
<path id="Vector_2" d="M184.074 0.000208H15.9358C15.3229 0.000208 14.7173 0.000208 14.1061 0.003408C13.5944 0.006608 13.0868 0.015904 12.5702 0.023728C11.4479 0.0363709 10.3283 0.13089 9.22099 0.306464C8.11526 0.485861 7.04417 0.824074 6.04396 1.30966C5.04496 1.79936 4.13215 2.43568 3.33863 3.19552C2.54095 3.95323 1.87602 4.82904 1.36942 5.78926C0.861412 6.74758 0.509161 7.77451 0.324826 8.83458C0.13874 9.89331 0.0386054 10.9642 0.0253209 12.0378C0.0098108 12.5283 0.00817288 13.0205 0 13.5112V50.4939C0.00817288 50.9907 0.0098108 51.472 0.0253209 51.969C0.0386094 53.0426 0.138744 54.1134 0.324826 55.172C0.508651 56.2328 0.860924 57.2603 1.36942 58.2189C1.8758 59.176 2.54081 60.0483 3.33863 60.8018C4.12913 61.565 5.04254 62.2018 6.04396 62.6877C7.04417 63.1746 8.11514 63.5149 9.22099 63.697C10.3285 63.8712 11.448 63.9658 12.5702 63.9798C13.0868 63.9907 13.5944 63.997 14.1061 63.997C14.7173 64.0002 15.3229 64.0002 15.9358 64.0002H184.074C184.674 64.0002 185.284 64.0002 185.885 63.997C186.394 63.997 186.917 63.9907 187.426 63.9798C188.546 63.9666 189.663 63.872 190.769 63.697C191.877 63.5136 192.954 63.1734 193.958 62.6877C194.958 62.2014 195.87 61.5648 196.661 60.8018C197.456 60.0454 198.123 59.1738 198.636 58.2189C199.141 57.2595 199.489 56.2322 199.671 55.172C199.856 54.1133 199.96 53.0426 199.98 51.969C199.987 51.472 199.987 50.9907 199.987 50.4939C200 49.9126 200 49.3346 200 48.7438V15.258C200 14.6721 200 14.0908 199.987 13.5112C199.987 13.0205 199.987 12.5283 199.98 12.0377C199.96 10.9641 199.856 9.89339 199.671 8.83451C199.489 7.77506 199.139 6.74821 198.636 5.7892C197.603 3.86453 195.969 2.29786 193.958 1.30952C192.954 0.825115 191.877 0.486992 190.769 0.30632C189.664 0.129972 188.546 0.0354205 187.426 0.023504C186.917 0.015696 186.394 0.00632 185.885 0.0032C185.284 0 184.674 0.000208 184.074 0.000208Z" fill="#A6A6A6"/>
<path id="Vector_3" d="M14.1122 62.5999C13.6029 62.5999 13.106 62.5937 12.6008 62.5828C11.5542 62.5697 10.51 62.4825 9.47681 62.3218C8.51343 62.1629 7.58016 61.8676 6.70782 61.4452C5.84347 61.0263 5.05511 60.4772 4.37295 59.8186C3.68091 59.1679 3.10475 58.413 2.66733 57.5842C2.22507 56.75 1.919 55.8558 1.75978 54.9327C1.58784 53.9409 1.49481 52.938 1.4815 51.9327C1.4709 51.5953 1.45703 50.4718 1.45703 50.4718V13.5108C1.45703 13.5108 1.47181 12.4046 1.48158 12.0796C1.49433 11.0759 1.58681 10.0745 1.75825 9.08427C1.91776 8.1587 2.22405 7.2619 2.66656 6.42491C3.10238 5.59661 3.67533 4.84128 4.36321 4.18819C5.0503 3.52889 5.84118 2.97686 6.707 2.55224C7.57734 2.13125 8.50883 1.83787 9.47027 1.68193C10.5068 1.51964 11.5546 1.4319 12.6049 1.41944L14.113 1.3999H185.875L187.401 1.42022C188.442 1.43206 189.48 1.51902 190.506 1.68037C191.477 1.83827 192.42 2.13369 193.299 2.55693C195.034 3.41269 196.446 4.76656 197.335 6.42882C197.772 7.26003 198.072 8.14952 198.231 9.06709C198.403 10.0655 198.5 11.0747 198.52 12.0866C198.525 12.5397 198.525 13.0265 198.525 13.5108C198.539 14.1108 198.539 14.6819 198.539 15.2577V48.7436C198.539 49.3249 198.539 49.8921 198.525 50.4639C198.525 50.9842 198.525 51.4609 198.519 51.9514C198.5 52.9454 198.405 53.9366 198.233 54.917C198.077 55.8468 197.773 56.7479 197.33 57.589C196.891 58.4089 196.318 59.1572 195.634 59.8061C194.95 60.4682 194.162 61.0206 193.294 61.4422C192.417 61.8678 191.477 62.1642 190.506 62.3218C189.473 62.4834 188.429 62.5706 187.383 62.5828C186.893 62.5937 186.381 62.5999 185.883 62.5999L184.072 62.6031L14.1122 62.5999Z" fill="black"/>
<path id="Vector_4" d="M41.3994 32.4821C41.4173 31.1466 41.7878 29.8373 42.4766 28.6757C43.1652 27.5143 44.1496 26.5383 45.3381 25.8388C44.583 24.8066 43.587 23.957 42.4289 23.3578C41.271 22.7585 39.9831 22.426 38.6674 22.3866C35.8609 22.1045 33.1399 23.9943 31.7098 23.9943C30.2518 23.9943 28.0498 22.4146 25.6787 22.4613C24.1449 22.5087 22.6502 22.9357 21.3401 23.7005C20.0299 24.4655 18.949 25.5421 18.2029 26.8258C14.9705 32.1833 17.3816 40.057 20.478 44.3876C22.0271 46.5082 23.8377 48.8769 26.2067 48.7929C28.525 48.7009 29.3908 47.3777 32.1891 47.3777C34.9615 47.3777 35.7738 48.7929 38.1909 48.7394C40.6785 48.7009 42.2458 46.6095 43.7406 44.4689C44.8537 42.9578 45.7103 41.2879 46.2784 39.5209C44.8332 38.9356 43.5999 37.9562 42.7323 36.7045C41.8647 35.4529 41.4011 33.9844 41.3994 32.4821Z" fill="white"/>
<path id="Vector_5" d="M36.8323 19.5386C38.1887 17.9799 38.857 15.9764 38.695 13.9536C36.6229 14.162 34.7088 15.1101 33.3342 16.609C32.6619 17.3413 32.1472 18.1931 31.8192 19.116C31.4912 20.0389 31.3565 21.0144 31.4226 21.9872C32.459 21.9975 33.4844 21.7824 34.4215 21.3583C35.3585 20.9341 36.1828 20.3119 36.8323 19.5386Z" fill="white"/>
<path id="Vector_6" d="M70.7029 43.4239H62.7917L60.8919 48.7941H57.541L65.0343 28.9253H68.5157L76.0091 48.7941H72.601L70.7029 43.4239ZM63.611 40.9456H69.8819L66.7906 32.2301H66.7042L63.611 40.9456Z" fill="white"/>
<path id="Vector_7" d="M92.1912 41.5509C92.1912 46.0523 89.6745 48.9445 85.8764 48.9445C84.9144 48.9928 83.9575 48.7806 83.1155 48.3323C82.2735 47.8841 81.5804 47.2179 81.1154 46.4101H81.0435V53.5851H77.9375V34.307H80.9441V36.7165H81.0011C81.4874 35.9125 82.1922 35.2497 83.0406 34.7989C83.8892 34.3478 84.8494 34.1256 85.8192 34.1555C89.6598 34.1555 92.1912 37.0617 92.1912 41.5509ZM88.9988 41.5509C88.9988 38.6181 87.4155 36.6899 84.9999 36.6899C82.6268 36.6899 81.0305 38.6585 81.0305 41.5509C81.0305 44.4696 82.6268 46.4243 84.9999 46.4243C87.4155 46.4243 88.9988 44.5102 88.9988 41.5509Z" fill="white"/>
<path id="Vector_8" d="M108.848 41.5507C108.848 46.0523 106.331 48.9445 102.533 48.9445C101.571 48.9926 100.614 48.7805 99.7717 48.3323C98.9297 47.8841 98.2366 47.2179 97.7716 46.4101H97.6998V53.5851H94.5938V34.307H97.6003V36.7165H97.6573C98.1437 35.9125 98.8485 35.2497 99.697 34.7989C100.545 34.3478 101.506 34.1256 102.476 34.1555C106.316 34.1555 108.848 37.0617 108.848 41.5507ZM105.655 41.5507C105.655 38.6179 104.072 36.6899 101.656 36.6899C99.283 36.6899 97.6867 38.6585 97.6867 41.5507C97.6867 44.4696 99.283 46.4241 101.656 46.4241C104.072 46.4241 105.655 44.5102 105.655 41.5507Z" fill="white"/>
<path id="Vector_9" d="M119.851 43.2579C120.082 45.2281 122.081 46.5219 124.813 46.5219C127.431 46.5219 129.315 45.2281 129.315 43.4515C129.315 41.9094 128.179 40.9859 125.489 40.3531L122.799 39.7328C118.988 38.8515 117.219 37.1453 117.219 34.3766C117.219 30.9485 120.339 28.5938 124.771 28.5938C129.157 28.5938 132.163 30.9485 132.264 34.3766H129.129C128.941 32.3937 127.229 31.197 124.727 31.197C122.225 31.197 120.512 32.4078 120.512 34.1704C120.512 35.575 121.606 36.4016 124.281 37.0344L126.568 37.5718C130.826 38.5358 132.595 40.1734 132.595 43.0797C132.595 46.7968 129.502 49.125 124.583 49.125C119.98 49.125 116.873 46.8515 116.672 43.2578L119.851 43.2579Z" fill="white"/>
<path id="Vector_10" d="M139.301 30.8794V34.3076H142.179V36.6623H139.301V44.6482C139.301 45.8888 139.878 46.4669 141.143 46.4669C141.484 46.4612 141.825 46.4383 142.164 46.3981V48.7388C141.595 48.8405 141.017 48.8866 140.439 48.8762C137.375 48.8762 136.181 47.7746 136.181 44.9653V36.6623H133.98V34.3076H136.181V30.8794H139.301Z" fill="white"/>
<path id="Vector_11" d="M143.844 41.5512C143.844 36.9934 146.648 34.1294 151.02 34.1294C155.408 34.1294 158.199 36.9934 158.199 41.5512C158.199 46.1216 155.422 48.9731 151.02 48.9731C146.62 48.9731 143.844 46.1216 143.844 41.5512ZM155.034 41.5512C155.034 38.4246 153.537 36.5793 151.02 36.5793C148.504 36.5793 147.008 38.4387 147.008 41.5512C147.008 44.6902 148.504 46.5216 151.02 46.5216C153.537 46.5216 155.034 44.6902 155.034 41.5512Z" fill="white"/>
<path id="Vector_12" d="M160.76 34.3069H163.722V36.7725H163.794C163.994 36.0024 164.466 35.3219 165.128 34.8453C165.791 34.3686 166.605 34.1251 167.433 34.1553C167.792 34.1541 168.148 34.1913 168.498 34.2662V37.0475C168.046 36.9153 167.575 36.8545 167.102 36.8678C166.651 36.8502 166.201 36.9264 165.784 37.091C165.366 37.2557 164.991 37.5049 164.683 37.8214C164.376 38.1381 164.143 38.5147 164.002 38.9254C163.861 39.336 163.815 39.771 163.866 40.2006V48.7928H160.76V34.3069Z" fill="white"/>
<path id="Vector_13" d="M182.82 44.5387C182.402 47.1684 179.726 48.9731 176.303 48.9731C171.901 48.9731 169.17 46.1496 169.17 41.62C169.17 37.0763 171.916 34.1294 176.173 34.1294C180.36 34.1294 182.992 36.8825 182.992 41.2747V42.2934H172.305V42.4731C172.255 43.0062 172.325 43.5433 172.509 44.0486C172.693 44.5539 172.987 45.016 173.373 45.4041C173.758 45.7921 174.224 46.0974 174.742 46.2995C175.26 46.5016 175.817 46.5958 176.375 46.5761C177.109 46.642 177.846 46.4793 178.476 46.1121C179.104 45.7451 179.594 45.1932 179.87 44.5387H182.82ZM172.319 40.2153H179.885C179.912 39.736 179.836 39.2563 179.661 38.8062C179.487 38.3563 179.216 37.9459 178.867 37.6006C178.519 37.2555 178.1 36.9828 177.637 36.8001C177.172 36.6174 176.674 36.5284 176.173 36.5387C175.666 36.5358 175.165 36.6289 174.697 36.8124C174.229 36.996 173.805 37.2665 173.445 37.6083C173.088 37.9502 172.803 38.3564 172.61 38.804C172.417 39.2513 172.319 39.731 172.319 40.2153Z" fill="white"/>
<path id="Vector_14" d="M63.2214 13.9708C63.8726 13.9261 64.5259 14.0202 65.1346 14.2465C65.7431 14.4728 66.2917 14.8256 66.7404 15.2794C67.1893 15.7332 67.5275 16.2767 67.7304 16.8707C67.9333 17.4647 67.9959 18.0945 67.9139 18.7145C67.9139 21.7646 66.1919 23.5177 63.2214 23.5177H59.6191V13.9708H63.2214ZM61.168 22.1676H63.0482C63.5137 22.1942 63.9794 22.1212 64.4114 21.9539C64.8434 21.7863 65.2312 21.5289 65.5462 21.1999C65.8613 20.8711 66.0958 20.4791 66.2325 20.0524C66.3694 19.6259 66.4051 19.1755 66.3371 18.734C66.4001 18.2942 66.3609 17.8467 66.222 17.4231C66.0829 16.9996 65.8479 16.6108 65.5335 16.2846C65.2193 15.9583 64.8334 15.7026 64.4039 15.5359C63.9742 15.3691 63.5112 15.2953 63.0482 15.3199H61.168V22.1676Z" fill="white"/>
<path id="Vector_15" d="M69.6613 19.9116C69.614 19.4381 69.6705 18.9604 69.8274 18.509C69.9842 18.0578 70.2379 17.6428 70.572 17.2908C70.9063 16.9388 71.3136 16.6577 71.7679 16.4652C72.2223 16.2727 72.7137 16.1733 73.2104 16.1733C73.7073 16.1733 74.1987 16.2727 74.6529 16.4652C75.1074 16.6577 75.5147 16.9388 75.8488 17.2908C76.1831 17.6428 76.4366 18.0578 76.5935 18.509C76.7503 18.9604 76.807 19.4381 76.7597 19.9116C76.8078 20.3855 76.752 20.8639 76.5955 21.3159C76.4391 21.7679 76.1856 22.1836 75.8513 22.5364C75.517 22.889 75.1094 23.1708 74.6546 23.3636C74.1998 23.5565 73.708 23.6561 73.2104 23.6561C72.713 23.6561 72.2211 23.5565 71.7664 23.3636C71.3114 23.1708 70.9038 22.889 70.5695 22.5364C70.2354 22.1836 69.9819 21.7679 69.8254 21.3159C69.669 20.8639 69.6132 20.3855 69.6613 19.9116ZM75.2319 19.9116C75.2319 18.3498 74.499 17.4365 73.2129 17.4365C71.9218 17.4365 71.1956 18.3498 71.1956 19.9116C71.1956 21.4858 71.922 22.3921 73.2129 22.3921C74.499 22.3921 75.2319 21.4796 75.2319 19.9116Z" fill="white"/>
<path id="Vector_16" d="M86.1972 23.5171H84.6566L83.1011 18.2109H82.9836L81.4346 23.5171H79.9085L77.834 16.3125H79.3405L80.6886 21.8101H80.7998L82.347 16.3125H83.7719L85.3193 21.8101H85.4368L86.7784 16.3125H88.2637L86.1972 23.5171Z" fill="white"/>
<path id="Vector_17" d="M90.0078 16.3118H91.4376V17.4563H91.5486C91.7368 17.0452 92.0545 16.7006 92.457 16.4705C92.8596 16.2404 93.3271 16.1363 93.7944 16.1726C94.1606 16.1464 94.5283 16.1992 94.8703 16.3273C95.2122 16.4555 95.5197 16.6556 95.7699 16.9131C96.0201 17.1704 96.2065 17.4784 96.3155 17.814C96.4244 18.1497 96.4532 18.5046 96.3994 18.8523V23.5163H94.9142V19.2094C94.9142 18.0516 94.3886 17.4758 93.2902 17.4758C93.0415 17.4648 92.7933 17.5052 92.5626 17.5945C92.3318 17.684 92.1241 17.82 91.9533 17.9934C91.7826 18.1668 91.6531 18.3734 91.5737 18.5993C91.4943 18.8251 91.4667 19.0646 91.4931 19.3016V23.5164H90.0078V16.3118Z" fill="white"/>
<path id="Vector_18" d="M98.7656 13.5005H100.251V23.5176H98.7656V13.5005Z" fill="white"/>
<path id="Vector_19" d="M102.318 19.9117C102.27 19.4381 102.327 18.9604 102.484 18.5092C102.641 18.0578 102.894 17.6428 103.228 17.2908C103.563 16.9389 103.97 16.6577 104.424 16.4652C104.879 16.2727 105.37 16.1733 105.867 16.1733C106.364 16.1733 106.855 16.2727 107.31 16.4652C107.764 16.6577 108.171 16.9389 108.506 17.2908C108.84 17.6428 109.093 18.0578 109.25 18.5092C109.407 18.9604 109.464 19.4381 109.417 19.9117C109.465 20.3857 109.409 20.8641 109.252 21.3161C109.096 21.7681 108.842 22.1837 108.508 22.5364C108.174 22.8892 107.766 23.1709 107.311 23.3637C106.856 23.5565 106.365 23.6562 105.867 23.6562C105.37 23.6562 104.878 23.5565 104.423 23.3637C103.968 23.1709 103.56 22.8892 103.226 22.5364C102.892 22.1837 102.638 21.7681 102.482 21.3161C102.325 20.8641 102.269 20.3857 102.318 19.9117ZM107.888 19.9117C107.888 18.35 107.155 17.4367 105.869 17.4367C104.578 17.4367 103.852 18.35 103.852 19.9117C103.852 21.486 104.578 22.3922 105.869 22.3922C107.155 22.3922 107.888 21.4796 107.888 19.9117Z" fill="white"/>
<path id="Vector_20" d="M110.98 21.4796C110.98 20.1826 111.989 19.4351 113.78 19.3289L115.818 19.2162V18.5945C115.818 17.8335 115.293 17.4037 114.277 17.4037C113.448 17.4037 112.874 17.6953 112.709 18.2045H111.271C111.423 16.9671 112.639 16.1733 114.346 16.1733C116.233 16.1733 117.297 17.0725 117.297 18.5945V23.517H115.867V22.5045H115.75C115.511 22.8677 115.176 23.1639 114.779 23.3626C114.382 23.5613 113.937 23.6556 113.489 23.6357C113.173 23.6673 112.854 23.6349 112.552 23.541C112.25 23.4471 111.971 23.2937 111.735 23.0905C111.499 22.8874 111.309 22.6391 111.18 22.3617C111.049 22.0841 110.982 21.7837 110.98 21.4796ZM115.818 20.8639V20.2617L113.98 20.3741C112.944 20.4405 112.474 20.778 112.474 21.4132C112.474 22.0617 113.061 22.4389 113.869 22.4389C114.106 22.4618 114.345 22.4389 114.573 22.3716C114.8 22.3044 115.011 22.1938 115.193 22.0469C115.374 21.9001 115.524 21.7196 115.631 21.5162C115.738 21.313 115.802 21.0913 115.818 20.8639Z" fill="white"/>
<path id="Vector_21" d="M119.248 19.9122C119.248 17.6357 120.471 16.1934 122.372 16.1934C122.842 16.1728 123.309 16.2806 123.718 16.5045C124.127 16.7282 124.46 17.0589 124.68 17.4574H124.791V13.5005H126.276V23.5176H124.853V22.3794H124.736C124.499 22.7754 124.153 23.1018 123.737 23.3234C123.32 23.545 122.848 23.6533 122.372 23.6363C120.458 23.6365 119.248 22.1942 119.248 19.9122ZM120.782 19.9122C120.782 21.4403 121.535 22.3598 122.793 22.3598C124.045 22.3598 124.819 21.427 124.819 19.9184C124.819 18.417 124.037 17.4709 122.793 17.4709C121.543 17.4709 120.782 18.3966 120.782 19.9122Z" fill="white"/>
<path id="Vector_22" d="M132.421 19.9116C132.374 19.4381 132.43 18.9604 132.587 18.509C132.744 18.0578 132.998 17.6428 133.332 17.2908C133.666 16.9388 134.073 16.6577 134.528 16.4652C134.982 16.2727 135.473 16.1733 135.97 16.1733C136.467 16.1733 136.958 16.2727 137.413 16.4652C137.867 16.6577 138.274 16.9388 138.609 17.2908C138.943 17.6428 139.197 18.0578 139.353 18.509C139.51 18.9604 139.567 19.4381 139.519 19.9116C139.568 20.3855 139.512 20.8639 139.355 21.3159C139.199 21.7679 138.945 22.1836 138.611 22.5364C138.277 22.889 137.869 23.1708 137.414 23.3636C136.96 23.5565 136.468 23.6561 135.97 23.6561C135.473 23.6561 134.981 23.5565 134.526 23.3636C134.071 23.1708 133.664 22.889 133.329 22.5364C132.995 22.1836 132.742 21.7679 132.585 21.3159C132.429 20.8639 132.373 20.3855 132.421 19.9116ZM137.992 19.9116C137.992 18.3498 137.259 17.4365 135.973 17.4365C134.682 17.4365 133.955 18.3498 133.955 19.9116C133.955 21.4858 134.682 22.3921 135.973 22.3921C137.259 22.3921 137.992 21.4796 137.992 19.9116Z" fill="white"/>
<path id="Vector_23" d="M141.512 16.3118H142.942V17.4563H143.053C143.241 17.0452 143.558 16.7006 143.961 16.4705C144.364 16.2404 144.831 16.1363 145.298 16.1726C145.665 16.1464 146.032 16.1992 146.374 16.3273C146.716 16.4555 147.024 16.6556 147.274 16.9131C147.524 17.1704 147.711 17.4784 147.82 17.814C147.929 18.1497 147.957 18.5046 147.903 18.8523V23.5163H146.418V19.2094C146.418 18.0516 145.892 17.4758 144.794 17.4758C144.546 17.4648 144.297 17.5052 144.067 17.5945C143.836 17.684 143.628 17.82 143.457 17.9934C143.287 18.1668 143.157 18.3734 143.078 18.5993C142.998 18.8251 142.971 19.0646 142.997 19.3016V23.5164H141.512V16.3118Z" fill="white"/>
<path id="Vector_24" d="M156.297 14.519V16.3456H157.927V17.5433H156.297V21.248C156.297 22.0027 156.622 22.3331 157.361 22.3331C157.55 22.3325 157.74 22.3216 157.927 22.3003V23.4846C157.661 23.5304 157.39 23.5547 157.12 23.5573C155.468 23.5573 154.81 23.0011 154.81 21.612V17.5432H153.615V16.3456H154.81V14.519H156.297Z" fill="white"/>
<path id="Vector_25" d="M159.957 13.5005H161.429V17.4709H161.547C161.744 17.0558 162.07 16.7093 162.481 16.4784C162.892 16.2474 163.367 16.1434 163.842 16.1802C164.206 16.1611 164.57 16.2194 164.908 16.3507C165.246 16.4819 165.55 16.683 165.797 16.9395C166.045 17.1962 166.23 17.5018 166.34 17.8349C166.45 18.1678 166.482 18.52 166.433 18.8661V23.5176H164.947V19.217C164.947 18.0661 164.387 17.4834 163.337 17.4834C163.082 17.4632 162.825 17.4968 162.585 17.5818C162.345 17.6666 162.127 17.8008 161.946 17.9747C161.766 18.1486 161.627 18.3584 161.54 18.589C161.453 18.8195 161.42 19.0656 161.442 19.3098V23.5176H159.957V13.5005Z" fill="white"/>
<path id="Vector_26" d="M175.092 21.5719C174.89 22.2303 174.454 22.7999 173.857 23.181C173.26 23.5619 172.543 23.7303 171.831 23.6562C171.335 23.6688 170.842 23.5778 170.387 23.3898C169.931 23.2018 169.525 22.9211 169.194 22.5672C168.863 22.2135 168.617 21.7949 168.472 21.3408C168.326 20.8867 168.286 20.4079 168.355 19.9375C168.288 19.4656 168.33 18.9858 168.473 18.5303C168.619 18.0749 168.863 17.6544 169.192 17.2975C169.521 16.9405 169.928 16.6555 170.38 16.4616C170.835 16.2677 171.328 16.1693 171.824 16.1735C173.919 16.1735 175.182 17.5431 175.182 19.8055V20.3016H169.867V20.3813C169.844 20.6456 169.879 20.9117 169.969 21.1626C170.06 21.4133 170.205 21.6432 170.392 21.8376C170.581 22.032 170.81 22.1864 171.066 22.2911C171.32 22.3957 171.596 22.4482 171.871 22.4453C172.227 22.4861 172.587 22.4248 172.906 22.2693C173.225 22.1138 173.487 21.8709 173.663 21.5719H175.092ZM169.867 19.2499H173.67C173.688 19.0082 173.653 18.7653 173.568 18.537C173.482 18.3087 173.349 18.0999 173.175 17.924C172.999 17.7483 172.789 17.6095 172.555 17.5163C172.321 17.4232 172.07 17.3781 171.816 17.3835C171.559 17.3805 171.305 17.4267 171.067 17.5194C170.828 17.612 170.613 17.7495 170.431 17.9234C170.25 18.0973 170.106 18.3043 170.009 18.5322C169.912 18.76 169.864 19.004 169.867 19.2499Z" fill="white"/>
</g>
</g>
</g>
</svg>
