<svg width="80" height="80" viewBox="0 0 80 80" fill="none" xmlns="http://www.w3.org/2000/svg">
<g id="bitcoin-(btc)">
<g id="vuesax/bold/bitcoin-(btc)">
<g id="bitcoin-(btc)_2">
<path id="Vector" d="M47.3333 43.25H49.8999C52.8052 43.25 54.9166 45.152 54.9166 47.2C54.9166 49.254 52.7978 51.1833 49.8999 51.1833H36.1333H32.5166V43.25H47.3333Z" fill="#800080" stroke="#800080" stroke-width="1.5"/>
<path id="Vector_2" d="M7.41699 40C7.41699 22.0142 22.0145 7.41663 40.0003 7.41663C57.9861 7.41663 72.5837 22.0142 72.5837 40C72.5837 57.9857 57.9861 72.5833 40.0003 72.5833C22.0145 72.5833 7.41699 57.9857 7.41699 40ZM45.1503 61.6666V57.6833H49.9003C56.1712 57.6833 61.417 53.0535 61.417 47.2666C61.417 43.5337 59.2677 40.3073 56.1013 38.4698C57.1614 36.8322 57.817 34.9025 57.817 32.8C57.817 27.1841 52.9129 22.3166 47.3337 22.3166H45.1503V18.3333C45.1503 16.5524 43.6812 15.0833 41.9003 15.0833C40.1194 15.0833 38.6503 16.5524 38.6503 18.3333V22.3166H36.1337H36.117V18.3333C36.117 16.5524 34.6479 15.0833 32.867 15.0833C31.0861 15.0833 29.617 16.5524 29.617 18.3333V22.3166H29.267H23.5003C21.7194 22.3166 20.2503 23.7857 20.2503 25.5666C20.2503 27.3475 21.7194 28.8166 23.5003 28.8166H26.017V40V51.1833H23.5003C21.7194 51.1833 20.2503 52.6524 20.2503 54.4333C20.2503 56.2142 21.7194 57.6833 23.5003 57.6833H29.267H29.617V61.6666C29.617 63.4475 31.0861 64.9166 32.867 64.9166C34.6479 64.9166 36.117 63.4475 36.117 61.6666V57.6833H36.1337H38.6503V61.6666C38.6503 63.4475 40.1194 64.9166 41.9003 64.9166C43.6812 64.9166 45.1503 63.4475 45.1503 61.6666Z" fill="#800080" stroke="#800080" stroke-width="1.5"/>
<path id="Vector_3" d="M47.3429 36.7167L47.3429 36.7167H47.3333H32.5166V28.7833H36.1333H47.3333C48.4208 28.7833 49.4157 29.3003 50.1523 30.0874C50.8955 30.8816 51.3166 31.8884 51.3166 32.7667C51.3166 34.9544 49.5193 36.7446 47.3429 36.7167Z" fill="#800080" stroke="#800080" stroke-width="1.5"/>
</g>
</g>
</g>
</svg>
