<svg width="112" height="112" viewBox="0 0 112 112" fill="none" xmlns="http://www.w3.org/2000/svg">
<path d="M102.667 21.7933V78.12C102.667 82.6 99.0274 86.7999 94.5474 87.3599L93.0073 87.5468C82.8339 88.9001 67.1538 94.0799 58.1938 99.0266C56.9805 99.7266 54.974 99.7266 53.714 99.0266L53.5272 98.9335C44.5672 94.0335 28.9341 88.9001 18.8075 87.5468L17.4539 87.3599C12.9739 86.7999 9.33398 82.6 9.33398 78.12V21.7466C9.33398 16.1933 13.8605 11.9933 19.4139 12.46C29.2139 13.2533 44.0538 18.2001 52.3605 23.3801L53.5272 24.0799C54.8805 24.9199 57.1208 24.9199 58.4741 24.0799L59.2674 23.5667C62.2074 21.7467 65.9406 19.9267 70.0006 18.2933V37.3334L79.334 31.1267L88.6673 37.3334V12.9735C89.9273 12.7402 91.1407 12.6 92.2607 12.5067H92.5407C98.0941 12.04 102.667 16.1933 102.667 21.7933Z" stroke="#292D32" stroke-width="4" stroke-linecap="round" stroke-linejoin="round"/>
<path d="M56 25.6199V95.6199" stroke="#292D32" stroke-width="4" stroke-linecap="round" stroke-linejoin="round"/>
<path d="M88.6667 12.9734V37.3333L79.3333 31.1265L70 37.3333V18.2932C76.1133 15.8665 82.9267 13.9067 88.6667 12.9734Z" stroke="#292D32" stroke-width="4" stroke-linecap="round" stroke-linejoin="round"/>
</svg>
