<svg width="112" height="112" viewBox="0 0 112 112" fill="none" xmlns="http://www.w3.org/2000/svg">
<path d="M102.667 78.12V21.7933C102.667 16.1933 98.094 12.04 92.5406 12.5067H92.2607C82.4607 13.3467 67.574 18.34 59.2673 23.5667L58.474 24.08C57.1206 24.92 54.8807 24.92 53.5273 24.08L52.3607 23.38C44.054 18.2 29.214 13.2533 19.414 12.46C13.8606 11.9933 9.33398 16.1933 9.33398 21.7467V78.12C9.33398 82.6 12.974 86.8 17.454 87.36L18.8073 87.5467C28.934 88.9 44.5673 94.0333 53.5273 98.9333L53.714 99.0266C54.974 99.7266 56.9807 99.7266 58.194 99.0266C67.154 94.08 82.834 88.9 93.0073 87.5467L94.5473 87.36C99.0273 86.8 102.667 82.6 102.667 78.12Z" stroke="#1D1D1D" stroke-width="2" stroke-linecap="round" stroke-linejoin="round"/>
<path d="M56 25.6201V95.6201" stroke="#1D1D1D" stroke-width="2" stroke-linecap="round" stroke-linejoin="round"/>
<path d="M36.166 39.6201H25.666" stroke="#1D1D1D" stroke-width="2" stroke-linecap="round" stroke-linejoin="round"/>
<path d="M39.666 53.6201H25.666" stroke="#1D1D1D" stroke-width="2" stroke-linecap="round" stroke-linejoin="round"/>
</svg>
