<svg width="227" height="64" viewBox="0 0 227 64" fill="none" xmlns="http://www.w3.org/2000/svg">
<rect x="10.0508" y="11" width="10.0503" height="10.0503" fill="#007BFF"/>
<rect x="10.0508" y="30.8997" width="10.0503" height="10.0503" fill="#009688"/>
<path d="M10.0508 40.9498H20.101V51.0001V51.0001C14.5504 51.0001 10.0508 46.5004 10.0508 40.9498V40.9498Z" fill="#FD6088"/>
<rect x="10.0508" y="20.8495" width="20.804" height="10.0503" fill="#800080"/>
<circle cx="25.8288" cy="45.975" r="5.02513" fill="#FFA500"/>
<circle cx="5.02513" cy="25.8746" r="5.02513" fill="#FFEE00"/>
<path d="M37.0645 51V23.224H42.3845L42.8885 28.488C43.8592 26.6587 45.2032 25.2213 46.9205 24.176C48.6752 23.0933 50.7845 22.552 53.2485 22.552V28.768H51.6245C49.9818 28.768 48.5072 29.048 47.2005 29.608C45.9312 30.1307 44.9045 31.0453 44.1205 32.352C43.3738 33.6213 43.0005 35.3947 43.0005 37.672V51H37.0645ZM70.5643 51.672C67.839 51.672 65.4123 51.0747 63.2843 49.88C61.1936 48.648 59.551 46.9493 58.3563 44.784C57.1616 42.6187 56.5643 40.0987 56.5643 37.224C56.5643 34.312 57.143 31.7547 58.3003 29.552C59.495 27.3493 61.1376 25.632 63.2283 24.4C65.3563 23.168 67.8203 22.552 70.6203 22.552C73.3456 22.552 75.7163 23.168 77.7323 24.4C79.7483 25.5947 81.3163 27.2 82.4363 29.216C83.5563 31.232 84.1163 33.4533 84.1163 35.88C84.1163 36.2533 84.0976 36.664 84.0603 37.112C84.0603 37.5227 84.0416 37.9893 84.0043 38.512H62.3883C62.575 41.2 63.4523 43.2533 65.0203 44.672C66.6256 46.0533 68.4736 46.744 70.5643 46.744C72.2443 46.744 73.6443 46.3707 74.7643 45.624C75.9216 44.84 76.7803 43.7947 77.3403 42.488H83.2763C82.5296 45.1013 81.0363 47.2853 78.7963 49.04C76.5936 50.7947 73.8496 51.672 70.5643 51.672ZM70.5643 27.424C68.5856 27.424 66.831 28.0213 65.3003 29.216C63.7696 30.3733 62.8363 32.128 62.5003 34.48H78.1803C78.0683 32.3147 77.303 30.5973 75.8843 29.328C74.4656 28.0587 72.6923 27.424 70.5643 27.424ZM103.267 51.672C100.542 51.672 98.1154 51.0747 95.9874 49.88C93.8968 48.648 92.2541 46.9493 91.0594 44.784C89.8648 42.6187 89.2674 40.0987 89.2674 37.224C89.2674 34.312 89.8461 31.7547 91.0034 29.552C92.1981 27.3493 93.8408 25.632 95.9314 24.4C98.0594 23.168 100.523 22.552 103.323 22.552C106.049 22.552 108.419 23.168 110.435 24.4C112.451 25.5947 114.019 27.2 115.139 29.216C116.259 31.232 116.819 33.4533 116.819 35.88C116.819 36.2533 116.801 36.664 116.763 37.112C116.763 37.5227 116.745 37.9893 116.707 38.512H95.0914C95.2781 41.2 96.1554 43.2533 97.7234 44.672C99.3288 46.0533 101.177 46.744 103.267 46.744C104.947 46.744 106.347 46.3707 107.467 45.624C108.625 44.84 109.483 43.7947 110.043 42.488H115.979C115.233 45.1013 113.739 47.2853 111.499 49.04C109.297 50.7947 106.553 51.672 103.267 51.672ZM103.267 27.424C101.289 27.424 99.5341 28.0213 98.0034 29.216C96.4728 30.3733 95.5394 32.128 95.2034 34.48H110.883C110.771 32.3147 110.006 30.5973 108.587 29.328C107.169 28.0587 105.395 27.424 103.267 27.424ZM129.669 51L119.253 23.224H125.469L133.197 45.344L140.925 23.224H147.085L136.725 51H129.669ZM155.323 17.96C154.203 17.96 153.27 17.624 152.523 16.952C151.814 16.2427 151.459 15.3653 151.459 14.32C151.459 13.2747 151.814 12.416 152.523 11.744C153.27 11.0347 154.203 10.68 155.323 10.68C156.443 10.68 157.358 11.0347 158.067 11.744C158.814 12.416 159.187 13.2747 159.187 14.32C159.187 15.3653 158.814 16.2427 158.067 16.952C157.358 17.624 156.443 17.96 155.323 17.96ZM152.355 51V23.224H158.291V51H152.355ZM175.535 51.672C173.183 51.672 171.242 51.28 169.711 50.496C168.18 49.712 167.042 48.6853 166.295 47.416C165.548 46.1093 165.175 44.6907 165.175 43.16C165.175 40.472 166.22 38.344 168.311 36.776C170.402 35.208 173.388 34.424 177.271 34.424H184.551V33.92C184.551 31.7547 183.954 30.1307 182.759 29.048C181.602 27.9653 180.09 27.424 178.223 27.424C176.58 27.424 175.143 27.8347 173.911 28.656C172.716 29.44 171.988 30.616 171.727 32.184H165.791C165.978 30.168 166.65 28.4507 167.807 27.032C169.002 25.576 170.495 24.4747 172.287 23.728C174.116 22.944 176.114 22.552 178.279 22.552C182.162 22.552 185.167 23.5787 187.295 25.632C189.423 27.648 190.487 30.4107 190.487 33.92V51H185.335L184.831 46.24C184.047 47.7707 182.908 49.0587 181.415 50.104C179.922 51.1493 177.962 51.672 175.535 51.672ZM176.711 46.856C178.316 46.856 179.66 46.4827 180.743 45.736C181.863 44.952 182.722 43.9253 183.319 42.656C183.954 41.3867 184.346 39.9867 184.495 38.456H177.887C175.535 38.456 173.855 38.8667 172.847 39.688C171.876 40.5093 171.391 41.536 171.391 42.768C171.391 44.0373 171.858 45.0453 172.791 45.792C173.762 46.5013 175.068 46.856 176.711 46.856ZM197.408 51V10.68H203.344V27.704C204.278 26.0987 205.566 24.848 207.208 23.952C208.888 23.0187 210.736 22.552 212.752 22.552C216.075 22.552 218.688 23.5973 220.592 25.688C222.496 27.7787 223.448 30.896 223.448 35.04V51H217.568V35.656C217.568 30.28 215.422 27.592 211.128 27.592C208.888 27.592 207.022 28.376 205.528 29.944C204.072 31.512 203.344 33.752 203.344 36.664V51H197.408Z" fill="#800080"/>
</svg>
