<svg width="29" height="29" viewBox="0 0 29 29" fill="none" xmlns="http://www.w3.org/2000/svg">
<path d="M14.1 6.8125C10.1 6.8125 6.9125 10.0625 6.9125 14C6.9125 18 10.1 21.1875 14.1 21.1875C18.0375 21.1875 21.2875 18 21.2875 14C21.2875 10.0625 18.0375 6.8125 14.1 6.8125ZM14.1 18.6875C11.5375 18.6875 9.4125 16.625 9.4125 14C9.4125 11.4375 11.475 9.375 14.1 9.375C16.6625 9.375 18.725 11.4375 18.725 14C18.725 16.625 16.6625 18.6875 14.1 18.6875ZM23.225 6.5625C23.225 5.625 22.475 4.875 21.5375 4.875C20.6 4.875 19.85 5.625 19.85 6.5625C19.85 7.5 20.6 8.25 21.5375 8.25C22.475 8.25 23.225 7.5 23.225 6.5625ZM27.975 8.25C27.85 6 27.35 4 25.725 2.375C24.1 0.75 22.1 0.25 19.85 0.125C17.5375 0 10.6 0 8.2875 0.125C6.0375 0.25 4.1 0.75 2.4125 2.375C0.7875 4 0.2875 6 0.1625 8.25C0.0375004 10.5625 0.0375004 17.5 0.1625 19.8125C0.2875 22.0625 0.7875 24 2.4125 25.6875C4.1 27.3125 6.0375 27.8125 8.2875 27.9375C10.6 28.0625 17.5375 28.0625 19.85 27.9375C22.1 27.8125 24.1 27.3125 25.725 25.6875C27.35 24 27.85 22.0625 27.975 19.8125C28.1 17.5 28.1 10.5625 27.975 8.25ZM24.975 22.25C24.5375 23.5 23.5375 24.4375 22.35 24.9375C20.475 25.6875 16.1 25.5 14.1 25.5C12.0375 25.5 7.6625 25.6875 5.85 24.9375C4.6 24.4375 3.6625 23.5 3.1625 22.25C2.4125 20.4375 2.6 16.0625 2.6 14C2.6 12 2.4125 7.625 3.1625 5.75C3.6625 4.5625 4.6 3.625 5.85 3.125C7.6625 2.375 12.0375 2.5625 14.1 2.5625C16.1 2.5625 20.475 2.375 22.35 3.125C23.5375 3.5625 24.475 4.5625 24.975 5.75C25.725 7.625 25.5375 12 25.5375 14C25.5375 16.0625 25.725 20.4375 24.975 22.25Z" fill="white"/>
</svg>
