<svg width="112" height="112" viewBox="0 0 112 112" fill="none" xmlns="http://www.w3.org/2000/svg">
<path d="M102.34 31.5466L86.6133 94.6868C85.4933 99.4001 81.2934 102.667 76.44 102.667H15.12C8.07329 102.667 3.03336 95.7597 5.13336 88.993L24.78 25.9001C26.1333 21.5135 30.1934 18.4797 34.7667 18.4797H92.1667C96.6 18.4797 100.287 21.1864 101.827 24.9198C102.713 26.9264 102.9 29.2133 102.34 31.5466Z" stroke="#1D1D1D" stroke-width="4" stroke-miterlimit="10"/>
<path d="M74.666 102.667H96.9727C102.993 102.667 107.706 97.58 107.286 91.56L102.666 28" stroke="#1D1D1D" stroke-width="4" stroke-miterlimit="10" stroke-linecap="round" stroke-linejoin="round"/>
<path d="M45.1738 29.7733L50.0272 9.61353" stroke="#1D1D1D" stroke-width="4" stroke-miterlimit="10" stroke-linecap="round" stroke-linejoin="round"/>
<path d="M76.4395 29.8201L80.8261 9.56689" stroke="#1D1D1D" stroke-width="4" stroke-miterlimit="10" stroke-linecap="round" stroke-linejoin="round"/>
<path d="M35.9336 56H73.2669" stroke="#1D1D1D" stroke-width="4" stroke-miterlimit="10" stroke-linecap="round" stroke-linejoin="round"/>
<path d="M31.2676 74.6667H68.6009" stroke="#1D1D1D" stroke-width="4" stroke-miterlimit="10" stroke-linecap="round" stroke-linejoin="round"/>
</svg>
