<svg width="80" height="80" viewBox="0 0 80 80" fill="none" xmlns="http://www.w3.org/2000/svg">
<g id="personalcard">
<g id="vuesax/linear/personalcard">
<g id="personalcard_2">
<path id="Vector" d="M56.667 70H23.3337C10.0003 70 6.66699 66.6667 6.66699 53.3333V26.6667C6.66699 13.3333 10.0003 10 23.3337 10H56.667C70.0003 10 73.3337 13.3333 73.3337 26.6667V53.3333C73.3337 66.6667 70.0003 70 56.667 70Z" stroke="#0A5AA4" stroke-width="4" stroke-linecap="round" stroke-linejoin="round"/>
<path id="Vector_2" d="M46.667 26.6666H63.3337" stroke="#0A5AA4" stroke-width="4" stroke-linecap="round" stroke-linejoin="round"/>
<path id="Vector_3" d="M50 40H63.3333" stroke="#0A5AA4" stroke-width="4" stroke-linecap="round" stroke-linejoin="round"/>
<path id="Vector_4" d="M56.667 53.3334H63.3337" stroke="#0A5AA4" stroke-width="4" stroke-linecap="round" stroke-linejoin="round"/>
<path id="Vector_5" d="M28.3331 37.6333C31.6653 37.6333 34.3665 34.9321 34.3665 31.6C34.3665 28.2679 31.6653 25.5667 28.3331 25.5667C25.001 25.5667 22.2998 28.2679 22.2998 31.6C22.2998 34.9321 25.001 37.6333 28.3331 37.6333Z" stroke="#0A5AA4" stroke-width="4" stroke-linecap="round" stroke-linejoin="round"/>
<path id="Vector_6" d="M40.0003 54.4334C39.5337 49.6 35.7003 45.8 30.867 45.3667C29.2003 45.2 27.5003 45.2 25.8003 45.3667C20.967 45.8334 17.1337 49.6 16.667 54.4334" stroke="#0A5AA4" stroke-width="4" stroke-linecap="round" stroke-linejoin="round"/>
</g>
</g>
</g>
</svg>
