<svg width="200" height="64" viewBox="0 0 200 64" fill="none" xmlns="http://www.w3.org/2000/svg">
<g id="playsre 2" clip-path="url(#clip0_478_5905)">
<path id="Vector" d="M192.593 0H7.40741C3.31641 0 0 3.58173 0 8V56C0 60.4182 3.31641 64 7.40741 64H192.593C196.683 64 200 60.4182 200 56V8C200 3.58173 196.683 0 192.593 0Z" fill="black"/>
<path id="Vector_2" d="M192.593 1.28C194.243 1.28 195.825 1.988 196.993 3.24824C198.16 4.50848 198.815 6.21774 198.815 8V56C198.815 57.7822 198.16 59.4915 196.993 60.7517C195.825 62.012 194.243 62.72 192.593 62.72H7.40741C5.75717 62.72 4.17452 62.012 3.00763 60.7517C1.84074 59.4915 1.18519 57.7822 1.18519 56V8C1.18519 6.21774 1.84074 4.50848 3.00763 3.24824C4.17452 1.988 5.75717 1.28 7.40741 1.28H192.593ZM192.593 0H7.40741C5.44284 0 3.55874 0.842854 2.16959 2.34315C0.780421 3.84344 0 5.87827 0 8V56C0 58.1218 0.780421 60.1566 2.16959 61.6568C3.55874 63.1571 5.44284 64 7.40741 64H192.593C194.557 64 196.441 63.1571 197.831 61.6568C199.219 60.1566 200 58.1218 200 56V8C200 5.87827 199.219 3.84344 197.831 2.34315C196.441 0.842854 194.557 0 192.593 0Z" fill="#A6A6A6"/>
<path id="Vector_3" d="M70.2519 16.384C70.2762 16.9707 70.1902 17.5568 69.9993 18.1067C69.8084 18.6566 69.5163 19.1592 69.1407 19.584C68.7199 20.0533 68.212 20.4213 67.6504 20.6638C67.0887 20.9066 66.4859 21.0182 65.8815 20.992C65.2736 21.0066 64.6693 20.8864 64.1062 20.6387C63.543 20.391 63.0329 20.0211 62.6074 19.552C62.1685 19.092 61.8222 18.539 61.5902 17.9278C61.3582 17.3166 61.2456 16.6603 61.2593 16C61.2436 15.3369 61.3553 14.6775 61.5873 14.0634C61.8193 13.4493 62.1667 12.8938 62.6074 12.4319C63.2674 11.7355 64.1033 11.2651 65.0101 11.0801C65.9167 10.8951 66.8539 11.0036 67.7037 11.3919C68.2379 11.6291 68.7144 11.9959 69.0963 12.4639L68.3111 13.3119C68.0169 12.9292 67.6441 12.6258 67.2224 12.4258C66.8006 12.2258 66.3415 12.1348 65.8815 12.1599C65.4188 12.1575 64.9603 12.256 64.5336 12.4495C64.107 12.6431 63.7209 12.9277 63.3985 13.2863C63.0763 13.6448 62.8243 14.07 62.6578 14.5364C62.4913 15.0027 62.4136 15.5005 62.4296 16C62.42 16.7458 62.615 17.4779 62.9901 18.1042C63.3653 18.7304 63.9039 19.2227 64.5376 19.5187C65.1716 19.8149 65.8724 19.9016 66.552 19.768C67.2314 19.6344 67.859 19.2864 68.3556 18.768C68.8124 18.2336 69.08 17.5424 69.1111 16.816H65.8815V15.664H70.1926C70.2258 15.9024 70.2455 16.1429 70.2519 16.384Z" fill="white" stroke="white" stroke-width="0.2" stroke-miterlimit="10"/>
<path id="Vector_4" d="M77.0384 12.3842H73.0384V15.4242H76.6828V16.5762H73.0384V19.6162H77.0384V20.8002H71.8828V11.2002H77.0384V12.3842Z" fill="white" stroke="white" stroke-width="0.2" stroke-miterlimit="10"/>
<path id="Vector_5" d="M81.8972 20.8002H80.7565V12.3842H78.2676V11.2002H84.4454V12.3842H81.8972V20.8002Z" fill="white" stroke="white" stroke-width="0.2" stroke-miterlimit="10"/>
<path id="Vector_6" d="M88.8008 20.8002V11.2002H89.9415V20.8002H88.8008Z" fill="white" stroke="white" stroke-width="0.2" stroke-miterlimit="10"/>
<path id="Vector_7" d="M95.0085 20.8002H93.8678V12.3842H91.3789V11.2002H97.4826V12.3842H95.0085V20.8002Z" fill="white" stroke="white" stroke-width="0.2" stroke-miterlimit="10"/>
<path id="Vector_8" d="M109.051 19.5523C108.623 20.0148 108.115 20.3817 107.556 20.6321C106.997 20.8823 106.397 21.0111 105.792 21.0111C105.186 21.0111 104.587 20.8823 104.028 20.6321C103.469 20.3817 102.96 20.0148 102.533 19.5523C102.102 19.0883 101.764 18.5335 101.539 17.9225C101.315 17.3115 101.209 16.6572 101.229 16.0003C101.209 15.3434 101.315 14.6892 101.539 14.0782C101.764 13.4672 102.102 12.9125 102.533 12.4483C102.951 11.9728 103.458 11.5975 104.019 11.3467C104.581 11.0959 105.184 10.9752 105.792 10.9923C106.398 10.982 107 11.1058 107.561 11.3562C108.121 11.6066 108.629 11.9783 109.051 12.4483C109.477 12.9163 109.812 13.4718 110.036 14.0818C110.26 14.6919 110.368 15.3442 110.355 16.0003C110.374 16.6572 110.269 17.3115 110.044 17.9225C109.82 18.5335 109.482 19.0883 109.051 19.5523ZM103.377 18.7523C103.693 19.0977 104.069 19.3719 104.483 19.5591C104.898 19.7463 105.342 19.8428 105.792 19.8428C106.241 19.8428 106.686 19.7463 107.101 19.5591C107.515 19.3719 107.891 19.0977 108.207 18.7523C108.535 18.3892 108.792 17.9583 108.962 17.4855C109.133 17.0126 109.213 16.5075 109.199 16.0003C109.206 15.4886 109.116 14.9807 108.935 14.5076C108.754 14.0346 108.486 13.6061 108.147 13.2483C107.832 12.9029 107.456 12.6287 107.041 12.4415C106.627 12.2543 106.182 12.1579 105.733 12.1579C105.283 12.1579 104.838 12.2543 104.424 12.4415C104.009 12.6287 103.633 12.9029 103.318 13.2483C103 13.6167 102.754 14.0499 102.594 14.5226C102.433 14.9952 102.362 15.4976 102.384 16.0003C102.37 16.5075 102.451 17.0126 102.621 17.4855C102.792 17.9583 103.049 18.3892 103.377 18.7523Z" fill="white" stroke="white" stroke-width="0.2" stroke-miterlimit="10"/>
<path id="Vector_9" d="M111.971 20.8002V11.2002H113.348L117.674 18.6722V16.8162V11.2002H118.815V20.8002H117.63L113.111 12.9762V14.8162V20.8002H111.971Z" fill="white" stroke="white" stroke-width="0.2" stroke-miterlimit="10"/>
<path id="Vector_10" d="M100.948 34.8C99.7003 34.8032 98.4809 35.2061 97.4447 35.9576C96.4084 36.7093 95.6019 37.7758 95.127 39.0224C94.652 40.2691 94.5299 41.6398 94.7763 42.9614C95.0227 44.283 95.6264 45.496 96.5111 46.4469C97.3958 47.3979 98.5218 48.0443 99.7465 48.3041C100.971 48.564 102.24 48.4259 103.392 47.907C104.544 47.3881 105.528 46.5121 106.219 45.3894C106.91 44.2669 107.277 42.9481 107.274 41.6C107.287 40.7008 107.131 39.808 106.817 38.975C106.503 38.1419 106.037 37.3857 105.447 36.7512C104.856 36.1168 104.154 35.6171 103.381 35.2817C102.608 34.9465 101.781 34.7827 100.948 34.8ZM100.948 45.728C100.183 45.7857 99.4198 45.5937 98.7573 45.1766C98.0947 44.7597 97.5636 44.1369 97.2329 43.3896C96.9024 42.6421 96.7875 41.8046 96.9035 40.9859C97.0195 40.167 97.3609 39.4049 97.8833 38.7985C98.4056 38.192 99.0847 37.7693 99.8326 37.5853C100.58 37.4013 101.362 37.4645 102.076 37.7665C102.79 38.0688 103.404 38.5958 103.837 39.2795C104.27 39.9632 104.502 40.7717 104.504 41.6C104.528 42.1248 104.454 42.6496 104.287 43.143C104.12 43.6366 103.864 44.0891 103.532 44.4739C103.201 44.8587 102.802 45.1678 102.358 45.3832C101.914 45.5985 101.435 45.7158 100.948 45.728ZM87.141 34.8C85.8929 34.8032 84.6735 35.2061 83.6373 35.9576C82.601 36.7093 81.7945 37.7758 81.3195 39.0224C80.8446 40.2691 80.7225 41.6398 80.9689 42.9614C81.2153 44.283 81.819 45.496 82.7037 46.4469C83.5884 47.3979 84.7144 48.0443 85.9391 48.3041C87.164 48.564 88.4326 48.4259 89.5847 47.907C90.7367 47.3881 91.7206 46.5121 92.4116 45.3894C93.1027 44.2669 93.4699 42.9481 93.467 41.6C93.4791 40.7008 93.3234 39.808 93.0095 38.975C92.6954 38.1419 92.2295 37.3857 91.6393 36.7512C91.0489 36.1168 90.3465 35.6171 89.5738 35.2817C88.801 34.9465 87.9736 34.7827 87.141 34.8ZM87.141 45.728C86.376 45.7857 85.6124 45.5937 84.9499 45.1766C84.2873 44.7597 83.7561 44.1369 83.4255 43.3896C83.095 42.6421 82.9801 41.8046 83.0961 40.9859C83.2121 40.167 83.5535 39.4049 84.0758 38.7985C84.5982 38.192 85.2773 37.7693 86.0252 37.5853C86.7729 37.4013 87.5547 37.4645 88.2687 37.7665C88.9828 38.0688 89.5961 38.5958 90.0292 39.2795C90.4622 39.9632 90.6947 40.7717 90.6966 41.6C90.7204 42.1248 90.6468 42.6496 90.4798 43.143C90.313 43.6366 90.0563 44.0891 89.7249 44.4739C89.3936 44.8587 88.9942 45.1678 88.5504 45.3832C88.1067 45.5985 87.6274 45.7158 87.141 45.728ZM70.7262 36.896V39.776H77.1262C77.0259 41.1325 76.5037 42.4125 75.6447 43.408C75.0028 44.1144 74.2307 44.6675 73.3782 45.0312C72.5259 45.395 71.6123 45.5616 70.6966 45.52C68.8107 45.52 67.0019 44.7109 65.6683 43.2705C64.3347 41.8304 63.5855 39.8769 63.5855 37.84C63.5855 35.8032 64.3347 33.8497 65.6683 32.4094C67.0019 30.9691 68.8107 30.16 70.6966 30.16C72.5046 30.131 74.2505 30.8725 75.5558 32.224L77.4373 30.192C76.5544 29.2488 75.5059 28.5054 74.3536 28.0054C73.2012 27.5054 71.968 27.2587 70.7262 27.28C69.4092 27.2246 68.0954 27.4569 66.8634 27.9632C65.6316 28.4693 64.507 29.2389 63.557 30.2256C62.607 31.2125 61.8513 32.3961 61.3351 33.7059C60.819 35.0157 60.5527 36.4245 60.5527 37.848C60.5527 39.2715 60.819 40.6803 61.3351 41.9901C61.8513 43.2998 62.607 44.4837 63.557 45.4704C64.507 46.4573 65.6316 47.2267 66.8634 47.7329C68.0954 48.239 69.4092 48.4713 70.7262 48.416C71.9935 48.4707 73.2572 48.2352 74.4342 47.7251C75.6113 47.2149 76.6751 46.4416 77.5558 45.456C79.1116 43.6102 79.9406 41.1827 79.867 38.688C79.8723 38.0875 79.8277 37.4878 79.7336 36.896H70.7262ZM137.852 39.136C137.466 37.9085 136.743 36.8365 135.78 36.0622C134.817 35.2878 133.659 34.8477 132.46 34.8C131.649 34.7984 130.847 34.9761 130.103 35.3225C129.359 35.6688 128.688 36.1763 128.133 36.8137C127.577 37.451 127.149 38.2046 126.874 39.0278C126.599 39.851 126.483 40.7265 126.534 41.6C126.521 43.0606 126.946 44.4864 127.746 45.6645C128.545 46.8425 129.676 47.7096 130.97 48.1363C132.263 48.5629 133.65 48.5262 134.922 48.0315C136.195 47.5369 137.285 46.611 138.03 45.392L135.882 43.792C135.561 44.3685 135.107 44.8445 134.564 45.1728C134.021 45.5013 133.408 45.6705 132.785 45.664C132.143 45.6926 131.508 45.5109 130.964 45.1425C130.419 44.7741 129.99 44.2365 129.734 43.6L138.163 39.84L137.852 39.136ZM129.26 41.408C129.229 40.9118 129.292 40.4142 129.443 39.9443C129.593 39.4745 129.829 39.0421 130.137 38.6723C130.445 38.3025 130.818 38.003 131.235 37.7913C131.652 37.5798 132.103 37.4603 132.563 37.44C133.039 37.4072 133.513 37.5261 133.927 37.7822C134.34 38.0382 134.675 38.42 134.889 38.88L129.26 41.408ZM122.415 48H125.185V28H122.415V48ZM117.882 36.32H117.778C117.357 35.8256 116.844 35.4341 116.271 35.1718C115.699 34.9097 115.081 34.7829 114.46 34.8C112.841 34.8848 111.314 35.639 110.196 36.9065C109.078 38.1741 108.454 39.8574 108.454 41.608C108.454 43.3585 109.078 45.0421 110.196 46.3094C111.314 47.5769 112.841 48.3312 114.46 48.416C115.088 48.4296 115.711 48.2933 116.284 48.0166C116.858 47.7401 117.368 47.3301 117.778 46.816H117.882V47.792C117.882 50.4 116.593 51.792 114.519 51.792C113.826 51.7755 113.153 51.5371 112.586 51.107C112.019 50.6768 111.583 50.0744 111.334 49.376L108.934 50.448C109.377 51.6517 110.149 52.6814 111.146 53.4014C112.143 54.1213 113.319 54.4974 114.519 54.48C117.763 54.48 120.445 52.416 120.445 47.392V35.2H117.882V36.32ZM114.697 45.728C113.726 45.6627 112.815 45.2001 112.149 44.4347C111.483 43.6693 111.112 42.6584 111.112 41.608C111.112 40.5577 111.483 39.5469 112.149 38.7814C112.815 38.0158 113.726 37.5534 114.697 37.488C115.171 37.5101 115.636 37.635 116.065 37.8555C116.494 38.0758 116.877 38.387 117.193 38.7707C117.508 39.1544 117.748 39.6025 117.9 40.0886C118.051 40.5747 118.111 41.0886 118.074 41.6C118.115 42.1131 118.058 42.6297 117.909 43.1187C117.759 43.6075 117.519 44.0585 117.203 44.4445C116.887 44.8304 116.503 45.143 116.072 45.3637C115.641 45.5843 115.173 45.7083 114.697 45.728ZM150.83 28H144.193V48H146.963V40.416H150.83C151.619 40.4773 152.412 40.3622 153.159 40.0779C153.905 39.7937 154.59 39.3465 155.169 38.764C155.748 38.1816 156.211 37.4765 156.526 36.6926C156.843 35.9086 157.006 35.0629 157.006 34.208C157.006 33.3531 156.843 32.5073 156.526 31.7235C156.211 30.9397 155.748 30.2345 155.169 29.652C154.59 29.0696 153.905 28.6222 153.159 28.3381C152.412 28.0539 151.619 27.9387 150.83 28ZM150.83 37.6H146.963V30.784H150.889C151.731 30.784 152.536 31.1448 153.131 31.7869C153.726 32.4289 154.059 33.3 154.059 34.208C154.059 35.1161 153.726 35.987 153.131 36.6291C152.536 37.2713 151.731 37.632 150.889 37.632L150.83 37.6ZM167.926 34.736C166.917 34.6688 165.913 34.9225 165.036 35.4656C164.159 36.0088 163.449 36.8176 162.993 37.792L165.437 38.896C165.685 38.415 166.055 38.0216 166.504 37.7632C166.954 37.5049 167.464 37.3926 167.971 37.44C168.322 37.3957 168.679 37.4273 169.019 37.5333C169.359 37.6393 169.676 37.8174 169.953 38.0571C170.228 38.2969 170.456 38.5936 170.625 38.9299C170.794 39.2662 170.898 39.6355 170.933 40.016V40.208C170.043 39.7022 169.051 39.4387 168.045 39.44C165.408 39.44 162.711 41.04 162.711 43.952C162.738 44.571 162.879 45.1779 163.126 45.7369C163.373 46.2958 163.723 46.7953 164.153 47.2057C164.582 47.6163 165.085 47.9293 165.628 48.1261C166.172 48.323 166.747 48.3998 167.319 48.352C168.013 48.3936 168.707 48.2347 169.326 47.8917C169.947 47.5486 170.47 47.0339 170.845 46.4H170.933V48H173.6V40.304C173.6 36.8 171.141 34.768 167.985 34.768L167.926 34.736ZM167.585 45.696C166.682 45.696 165.422 45.2 165.422 44C165.422 42.4 166.993 41.856 168.385 41.856C169.265 41.8326 170.135 42.0646 170.904 42.528C170.811 43.3969 170.43 44.2 169.83 44.7883C169.231 45.3768 168.455 45.7105 167.645 45.728L167.585 45.696ZM183.319 35.2L180.148 43.872H180.059L176.771 35.2H173.808L178.741 47.328L175.926 54.064H178.889L186.4 35.2H183.319ZM158.43 48H161.185V28H158.43V48Z" fill="white"/>
<path id="Vector_11" d="M15.4679 12.0637C14.9957 12.6941 14.7627 13.4948 14.8161 14.3037V49.6956C14.7657 50.5123 15.0159 51.3174 15.5123 51.9356L15.616 52.0636L33.9271 32.2396V31.7596L15.5716 11.9517L15.4679 12.0637Z" fill="url(#paint0_linear_478_5905)"/>
<path id="Vector_12" d="M39.9999 38.8474L33.9258 32.2394V31.7594L39.9999 25.1514L40.1332 25.2474L47.4073 29.6954C49.4813 30.9594 49.4813 33.0394 47.4073 34.3194L40.1628 38.7674L39.9999 38.8474Z" fill="url(#paint1_linear_478_5905)"/>
<path id="Vector_13" d="M40.1779 38.768L33.9261 32L15.4668 51.936C15.8855 52.3384 16.4213 52.5699 16.9815 52.5904C17.5416 52.6109 18.0906 52.419 18.5335 52.048L40.1779 38.768Z" fill="url(#paint2_linear_478_5905)"/>
<path id="Vector_14" d="M40.1779 25.2489L18.5335 11.9688C18.0936 11.5927 17.5449 11.3961 16.984 11.4137C16.4231 11.4312 15.8859 11.6618 15.4668 12.0648L33.9261 32.0009L40.1779 25.2489Z" fill="url(#paint3_linear_478_5905)"/>
<path id="Vector_15" opacity="0.2" d="M40.0001 38.6079L18.5335 51.8079C18.1068 52.1558 17.5866 52.3439 17.052 52.3439C16.5175 52.3439 15.9973 52.1558 15.5705 51.8079L15.4668 51.9199L15.5705 52.0479C15.9973 52.3958 16.5175 52.5839 17.052 52.5839C17.5866 52.5839 18.1068 52.3958 18.5335 52.0479L40.1779 38.7679L40.0001 38.6079Z" fill="black"/>
<path id="Vector_16" opacity="0.12" d="M15.4651 51.7125C14.9892 51.0778 14.756 50.2708 14.8132 49.4565V49.6965C14.7628 50.513 15.0131 51.3181 15.5095 51.9365L15.6132 51.8245L15.4651 51.7125Z" fill="black"/>
<path id="Vector_17" opacity="0.12" d="M47.4074 34.08L40 38.608L40.1333 38.768L47.4074 34.304C47.8367 34.1078 48.2093 33.7904 48.4856 33.385C48.7619 32.9795 48.932 32.5011 48.9778 32C48.8852 32.4554 48.6948 32.8808 48.4221 33.2421C48.1492 33.6034 47.8018 33.8904 47.4074 34.08Z" fill="black"/>
<path id="Vector_18" opacity="0.25" d="M18.533 12.1919L47.407 29.9199C47.8014 30.1095 48.1488 30.3965 48.4217 30.7578C48.6945 31.1191 48.8848 31.5445 48.9774 31.9999C48.9316 31.4988 48.7616 31.0204 48.4853 30.6149C48.209 30.2095 47.8364 29.8919 47.407 29.6959L18.533 11.9679C16.4737 10.6879 14.8145 11.7439 14.8145 14.3039V14.5439C14.8145 11.9839 16.4737 10.9279 18.533 12.1919Z" fill="white"/>
</g>
<defs>
<linearGradient id="paint0_linear_478_5905" x1="32.2975" y1="13.9357" x2="5.52888" y2="38.7214" gradientUnits="userSpaceOnUse">
<stop stop-color="#00A0FF"/>
<stop offset="0.01" stop-color="#00A1FF"/>
<stop offset="0.26" stop-color="#00BEFF"/>
<stop offset="0.51" stop-color="#00D2FF"/>
<stop offset="0.76" stop-color="#00DFFF"/>
<stop offset="1" stop-color="#00E3FF"/>
</linearGradient>
<linearGradient id="paint1_linear_478_5905" x1="50.1184" y1="31.9994" x2="14.2813" y2="31.9994" gradientUnits="userSpaceOnUse">
<stop stop-color="#FFE000"/>
<stop offset="0.41" stop-color="#FFBD00"/>
<stop offset="0.78" stop-color="#FFA500"/>
<stop offset="1" stop-color="#FF9C00"/>
</linearGradient>
<linearGradient id="paint2_linear_478_5905" x1="36.7853" y1="35.68" x2="0.478184" y2="69.283" gradientUnits="userSpaceOnUse">
<stop stop-color="#FF3A44"/>
<stop offset="1" stop-color="#C31162"/>
</linearGradient>
<linearGradient id="paint3_linear_478_5905" x1="10.815" y1="0.288831" x2="27.0229" y2="15.2963" gradientUnits="userSpaceOnUse">
<stop stop-color="#32A071"/>
<stop offset="0.07" stop-color="#2DA771"/>
<stop offset="0.48" stop-color="#15CF74"/>
<stop offset="0.8" stop-color="#06E775"/>
<stop offset="1" stop-color="#00F076"/>
</linearGradient>
<clipPath id="clip0_478_5905">
<rect width="200" height="64" fill="white"/>
</clipPath>
</defs>
</svg>
