<svg width="80" height="80" viewBox="0 0 80 80" fill="none" xmlns="http://www.w3.org/2000/svg">
<g id="profile">
<g id="vuesax/linear/profile">
<g id="profile_2">
<path id="Vector" d="M40.5335 36.2333C40.2002 36.2 39.8002 36.2 39.4335 36.2333C31.5002 35.9666 25.2002 29.4666 25.2002 21.4666C25.2002 13.3 31.8002 6.66663 40.0002 6.66663C48.1669 6.66663 54.8002 13.3 54.8002 21.4666C54.7669 29.4666 48.4669 35.9666 40.5335 36.2333Z" stroke="#018101" stroke-width="4" stroke-linecap="round" stroke-linejoin="round"/>
<path id="Vector_2" d="M23.8664 48.5334C15.7997 53.9334 15.7997 62.7334 23.8664 68.1C33.0331 74.2334 48.0664 74.2334 57.2331 68.1C65.2997 62.7 65.2997 53.9 57.2331 48.5334C48.0997 42.4334 33.0664 42.4334 23.8664 48.5334Z" stroke="#018101" stroke-width="4" stroke-linecap="round" stroke-linejoin="round"/>
</g>
</g>
</g>
</svg>
