<svg width="112" height="112" viewBox="0 0 112 112" fill="none" xmlns="http://www.w3.org/2000/svg">
<path d="M40.4587 65.3333H18.6654C13.532 65.3333 9.33203 69.5333 9.33203 74.6666V102.667H40.4587V65.3333Z" stroke="#1D1D1D" stroke-width="2" stroke-miterlimit="10" stroke-linecap="round" stroke-linejoin="round"/>
<path d="M62.2074 46.6667H49.7474C44.6141 46.6667 40.4141 50.8667 40.4141 56.0001V102.667H71.5407V56.0001C71.5407 50.8667 67.3874 46.6667 62.2074 46.6667Z" stroke="#1D1D1D" stroke-width="2" stroke-miterlimit="10" stroke-linecap="round" stroke-linejoin="round"/>
<path d="M93.3324 79.3333H71.5391V102.667H102.666V88.6666C102.666 83.5333 98.4657 79.3333 93.3324 79.3333Z" stroke="#1D1D1D" stroke-width="2" stroke-miterlimit="10" stroke-linecap="round" stroke-linejoin="round"/>
<path d="M58.4277 9.6604L60.9011 14.6071C61.2277 15.3071 62.1144 15.9604 62.8611 16.0537L67.3411 16.8004C70.1877 17.2671 70.8877 19.367 68.8344 21.3736L65.3344 24.8736C64.7277 25.4803 64.4011 26.6003 64.5877 27.3937L65.5677 31.6871C66.3611 35.0937 64.5411 36.4004 61.5544 34.6271L57.3544 32.1538C56.6077 31.6871 55.3477 31.6871 54.6011 32.1538L50.4011 34.6271C47.4144 36.4004 45.5944 35.0937 46.3877 31.6871L47.3677 27.3937C47.5544 26.6003 47.2277 25.4336 46.6211 24.8736L43.1677 21.4203C41.1144 19.367 41.7677 17.3136 44.6611 16.847L49.1411 16.1004C49.8877 15.9604 50.7744 15.3071 51.1011 14.6538L53.5744 9.70697C54.9277 7.0003 57.0744 7.0004 58.4277 9.6604Z" fill="#FFA500"/>
</svg>
