<svg width="80" height="80" viewBox="0 0 80 80" fill="none" xmlns="http://www.w3.org/2000/svg">
<g id="teacher">
<g id="vuesax/linear/teacher">
<g id="teacher_2">
<path id="Vector" d="M33.5001 8.43333L13.4334 21.5333C7.00007 25.7333 7.00007 35.1333 13.4334 39.3333L33.5001 52.4333C37.1001 54.8 43.0334 54.8 46.6334 52.4333L66.6001 39.3333C73.0001 35.1333 73.0001 25.7667 66.6001 21.5667L46.6334 8.46666C43.0334 6.06666 37.1001 6.06666 33.5001 8.43333Z" stroke="#FFA500" stroke-width="4" stroke-linecap="round" stroke-linejoin="round"/>
<path id="Vector_2" d="M18.7667 43.6L18.7334 59.2333C18.7334 63.4666 22.0001 68 26.0001 69.3333L36.6334 72.8666C38.4667 73.4666 41.5001 73.4666 43.3667 72.8666L54.0001 69.3333C58.0001 68 61.2667 63.4666 61.2667 59.2333V43.7666" stroke="#FFA500" stroke-width="4" stroke-linecap="round" stroke-linejoin="round"/>
<path id="Vector_3" d="M71.333 50V30" stroke="#FFA500" stroke-width="4" stroke-linecap="round" stroke-linejoin="round"/>
</g>
</g>
</g>
</svg>
