<svg width="33" height="26" viewBox="0 0 33 26" fill="none" xmlns="http://www.w3.org/2000/svg">
<path d="M28.7875 6.5C30.0375 5.5625 31.1625 4.4375 32.0375 3.125C30.9125 3.625 29.6 4 28.2875 4.125C29.6625 3.3125 30.6625 2.0625 31.1625 0.5C29.9125 1.25 28.475 1.8125 27.0375 2.125C25.7875 0.8125 24.1 0.0625 22.225 0.0625C18.6 0.0625 15.6625 3 15.6625 6.625C15.6625 7.125 15.725 7.625 15.85 8.125C10.4125 7.8125 5.5375 5.1875 2.2875 1.25C1.725 2.1875 1.4125 3.3125 1.4125 4.5625C1.4125 6.8125 2.5375 8.8125 4.35 10C3.2875 9.9375 2.225 9.6875 1.35 9.1875V9.25C1.35 12.4375 3.6 15.0625 6.6 15.6875C6.1 15.8125 5.475 15.9375 4.9125 15.9375C4.475 15.9375 4.1 15.875 3.6625 15.8125C4.475 18.4375 6.9125 20.3125 9.7875 20.375C7.5375 22.125 4.725 23.1875 1.6625 23.1875C1.1 23.1875 0.6 23.125 0.1 23.0625C2.975 24.9375 6.4125 26 10.1625 26C22.225 26 28.7875 16.0625 28.7875 7.375C28.7875 7.0625 28.7875 6.8125 28.7875 6.5Z" fill="white"/>
</svg>
