<svg width="88" height="88" viewBox="0 0 88 88" fill="none" xmlns="http://www.w3.org/2000/svg">
<path d="M65.9985 26.2542C65.7785 26.2176 65.5218 26.2176 65.3018 26.2542C60.2418 26.0709 56.2085 21.9276 56.2085 16.7942C56.2085 11.5509 60.4252 7.33423 65.6685 7.33423C70.9118 7.33423 75.1285 11.5876 75.1285 16.7942C75.0918 21.9276 71.0585 26.0709 65.9985 26.2542Z" stroke="#5A045A" stroke-width="6" stroke-linecap="round" stroke-linejoin="round"/>
<path d="M62.2213 52.9482C67.2447 53.7915 72.7813 52.9115 76.668 50.3081C81.838 46.8615 81.838 41.2148 76.668 37.7682C72.7447 35.1648 67.1347 34.2848 62.1113 35.1648" stroke="#5A045A" stroke-width="6" stroke-linecap="round" stroke-linejoin="round"/>
<path d="M21.8917 26.2542C22.1117 26.2176 22.3684 26.2176 22.5884 26.2542C27.6484 26.0709 31.6817 21.9276 31.6817 16.7942C31.6817 11.5509 27.4651 7.33423 22.2217 7.33423C16.9784 7.33423 12.7617 11.5876 12.7617 16.7942C12.7984 21.9276 16.8317 26.0709 21.8917 26.2542Z" stroke="#5A045A" stroke-width="6" stroke-linecap="round" stroke-linejoin="round"/>
<path d="M25.6664 52.9482C20.6431 53.7915 15.1065 52.9115 11.2198 50.3081C6.04979 46.8615 6.04979 41.2148 11.2198 37.7682C15.1431 35.1648 20.7531 34.2848 25.7764 35.1648" stroke="#5A045A" stroke-width="6" stroke-linecap="round" stroke-linejoin="round"/>
<path d="M44.0039 53.6441C43.7839 53.6075 43.5272 53.6075 43.3072 53.6441C38.2472 53.4608 34.2139 49.3175 34.2139 44.1841C34.2139 38.9408 38.4305 34.7241 43.6739 34.7241C48.9172 34.7241 53.1339 38.9775 53.1339 44.1841C53.0972 49.3175 49.0639 53.4975 44.0039 53.6441Z" stroke="#5A045A" stroke-width="6" stroke-linecap="round" stroke-linejoin="round"/>
<path d="M33.3326 65.1928C28.1626 68.6395 28.1626 74.2862 33.3326 77.7328C39.1992 81.6562 48.8059 81.6562 54.6726 77.7328C59.8426 74.2862 59.8426 68.6395 54.6726 65.1928C48.8426 61.3062 39.1992 61.3062 33.3326 65.1928Z" stroke="#5A045A" stroke-width="6" stroke-linecap="round" stroke-linejoin="round"/>
</svg>
