<svg width="29" height="28" viewBox="0 0 29 28" fill="none" xmlns="http://www.w3.org/2000/svg">
<path d="M23.85 4.125C21.2875 1.5 17.7875 0 14.0375 0C6.4125 0 0.1625 6.25 0.1625 13.875C0.1625 16.375 0.85 18.75 2.0375 20.8125L0.1 28L7.4125 26.125C9.475 27.1875 11.725 27.8125 14.0375 27.8125C21.725 27.8125 28.1 21.5625 28.1 13.9375C28.1 10.1875 26.475 6.75 23.85 4.125ZM14.0375 25.4375C11.975 25.4375 9.975 24.875 8.1625 23.8125L7.7875 23.5625L3.4125 24.75L4.6 20.5L4.2875 20.0625C3.1625 18.1875 2.5375 16.0625 2.5375 13.875C2.5375 7.5625 7.725 2.375 14.1 2.375C17.1625 2.375 20.0375 3.5625 22.225 5.75C24.4125 7.9375 25.725 10.8125 25.725 13.9375C25.725 20.25 20.4125 25.4375 14.0375 25.4375ZM20.4125 16.8125C20.0375 16.625 18.35 15.8125 18.0375 15.6875C17.725 15.5625 17.475 15.5 17.225 15.875C17.0375 16.1875 16.35 17 16.1625 17.25C15.9125 17.4375 15.725 17.5 15.4125 17.3125C13.35 16.3125 12.0375 15.5 10.6625 13.1875C10.2875 12.5625 11.0375 12.625 11.6625 11.3125C11.7875 11.0625 11.725 10.875 11.6625 10.6875C11.6 10.5 10.85 8.8125 10.6 8.125C10.2875 7.4375 10.0375 7.5 9.7875 7.5C9.6 7.5 9.35 7.5 9.1625 7.5C8.9125 7.5 8.5375 7.5625 8.225 7.9375C7.9125 8.3125 7.0375 9.125 7.0375 10.8125C7.0375 12.5625 8.225 14.1875 8.4125 14.4375C8.6 14.625 10.85 18.125 14.35 19.625C16.5375 20.625 17.4125 20.6875 18.5375 20.5C19.1625 20.4375 20.5375 19.6875 20.85 18.875C21.1625 18.0625 21.1625 17.375 21.0375 17.25C20.975 17.0625 20.725 17 20.4125 16.8125Z" fill="white"/>
</svg>
